<svg xmlns="http://www.w3.org/2000/svg" width="840" height="1440" viewBox="0 0 840 1440">
  <defs>
    <linearGradient id="pink-gradient" x1="0%" y1="0%" x2="100%" y2="100%">
      <stop offset="0%" stop-color="#ffd1e3" />
      <stop offset="100%" stop-color="#e75480" />
    </linearGradient>
  </defs>
  <rect width="100%" height="100%" fill="#faf8f4" />
  <g fill="url(#pink-gradient)" stroke="#1d4ed8" stroke-width="3.0">
  <polygon points="120.00,90.00 105.00,115.98 75.00,115.98 60.00,90.00 75.00,64.02 105.00,64.02" transform="translate(-0.00 -0.00) rotate(-0.00 90.00 90.00)" />
  <polygon points="180.00,90.00 165.00,115.98 135.00,115.98 120.00,90.00 135.00,64.02 165.00,64.02" transform="translate(-0.00 -0.00) rotate(0.00 150.00 90.00)" />
  <polygon points="240.00,90.00 225.00,115.98 195.00,115.98 180.00,90.00 195.00,64.02 225.00,64.02" transform="translate(0.00 -0.00) rotate(0.00 210.00 90.00)" />
  <polygon points="300.00,90.00 285.00,115.98 255.00,115.98 240.00,90.00 255.00,64.02 285.00,64.02" transform="translate(0.00 0.00) rotate(-0.00 270.00 90.00)" />
  <polygon points="360.00,90.00 345.00,115.98 315.00,115.98 300.00,90.00 315.00,64.02 345.00,64.02" transform="translate(0.00 -0.00) rotate(-0.00 330.00 90.00)" />
  <polygon points="420.00,90.00 405.00,115.98 375.00,115.98 360.00,90.00 375.00,64.02 405.00,64.02" transform="translate(-0.00 0.00) rotate(-0.00 390.00 90.00)" />
  <polygon points="480.00,90.00 465.00,115.98 435.00,115.98 420.00,90.00 435.00,64.02 465.00,64.02" transform="translate(0.00 0.00) rotate(0.00 450.00 90.00)" />
  <polygon points="540.00,90.00 525.00,115.98 495.00,115.98 480.00,90.00 495.00,64.02 525.00,64.02" transform="translate(0.00 -0.00) rotate(-0.00 510.00 90.00)" />
  <polygon points="600.00,90.00 585.00,115.98 555.00,115.98 540.00,90.00 555.00,64.02 585.00,64.02" transform="translate(-0.00 0.00) rotate(0.00 570.00 90.00)" />
  <polygon points="660.00,90.00 645.00,115.98 615.00,115.98 600.00,90.00 615.00,64.02 645.00,64.02" transform="translate(-0.00 -0.00) rotate(-0.00 630.00 90.00)" />
  <polygon points="720.00,90.00 705.00,115.98 675.00,115.98 660.00,90.00 675.00,64.02 705.00,64.02" transform="translate(-0.00 0.00) rotate(-0.00 690.00 90.00)" />
  <polygon points="780.00,90.00 765.00,115.98 735.00,115.98 720.00,90.00 735.00,64.02 765.00,64.02" transform="translate(-0.00 -0.00) rotate(-0.00 750.00 90.00)" />
  <polygon points="120.00,150.00 105.00,175.98 75.00,175.98 60.00,150.00 75.00,124.02 105.00,124.02" transform="translate(-0.03 0.09) rotate(-0.12 90.00 150.00)" />
  <polygon points="180.00,150.00 165.00,175.98 135.00,175.98 120.00,150.00 135.00,124.02 165.00,124.02" transform="translate(0.08 -0.07) rotate(0.08 150.00 150.00)" />
  <polygon points="240.00,150.00 225.00,175.98 195.00,175.98 180.00,150.00 195.00,124.02 225.00,124.02" transform="translate(-0.05 0.04) rotate(-0.03 210.00 150.00)" />
  <polygon points="300.00,150.00 285.00,175.98 255.00,175.98 240.00,150.00 255.00,124.02 285.00,124.02" transform="translate(0.08 -0.06) rotate(0.10 270.00 150.00)" />
  <polygon points="360.00,150.00 345.00,175.98 315.00,175.98 300.00,150.00 315.00,124.02 345.00,124.02" transform="translate(0.09 -0.03) rotate(0.16 330.00 150.00)" />
  <polygon points="420.00,150.00 405.00,175.98 375.00,175.98 360.00,150.00 375.00,124.02 405.00,124.02" transform="translate(-0.02 0.10) rotate(0.08 390.00 150.00)" />
  <polygon points="480.00,150.00 465.00,175.98 435.00,175.98 420.00,150.00 435.00,124.02 465.00,124.02" transform="translate(0.08 0.10) rotate(-0.01 450.00 150.00)" />
  <polygon points="540.00,150.00 525.00,175.98 495.00,175.98 480.00,150.00 495.00,124.02 525.00,124.02" transform="translate(-0.09 0.03) rotate(0.13 510.00 150.00)" />
  <polygon points="600.00,150.00 585.00,175.98 555.00,175.98 540.00,150.00 555.00,124.02 585.00,124.02" transform="translate(0.04 -0.10) rotate(0.13 570.00 150.00)" />
  <polygon points="660.00,150.00 645.00,175.98 615.00,175.98 600.00,150.00 615.00,124.02 645.00,124.02" transform="translate(-0.11 -0.01) rotate(0.07 630.00 150.00)" />
  <polygon points="720.00,150.00 705.00,175.98 675.00,175.98 660.00,150.00 675.00,124.02 705.00,124.02" transform="translate(0.01 0.01) rotate(0.12 690.00 150.00)" />
  <polygon points="780.00,150.00 765.00,175.98 735.00,175.98 720.00,150.00 735.00,124.02 765.00,124.02" transform="translate(0.05 0.06) rotate(-0.12 750.00 150.00)" />
  <polygon points="120.00,210.00 105.00,235.98 75.00,235.98 60.00,210.00 75.00,184.02 105.00,184.02" transform="translate(0.31 0.37) rotate(-0.15 90.00 210.00)" />
  <polygon points="180.00,210.00 165.00,235.98 135.00,235.98 120.00,210.00 135.00,184.02 165.00,184.02" transform="translate(0.05 -0.07) rotate(-0.22 150.00 210.00)" />
  <polygon points="240.00,210.00 225.00,235.98 195.00,235.98 180.00,210.00 195.00,184.02 225.00,184.02" transform="translate(0.26 -0.17) rotate(0.44 210.00 210.00)" />
  <polygon points="300.00,210.00 285.00,235.98 255.00,235.98 240.00,210.00 255.00,184.02 285.00,184.02" transform="translate(0.07 -0.11) rotate(0.55 270.00 210.00)" />
  <polygon points="360.00,210.00 345.00,235.98 315.00,235.98 300.00,210.00 315.00,184.02 345.00,184.02" transform="translate(-0.45 0.44) rotate(0.50 330.00 210.00)" />
  <polygon points="420.00,210.00 405.00,235.98 375.00,235.98 360.00,210.00 375.00,184.02 405.00,184.02" transform="translate(0.28 -0.14) rotate(0.50 390.00 210.00)" />
  <polygon points="480.00,210.00 465.00,235.98 435.00,235.98 420.00,210.00 435.00,184.02 465.00,184.02" transform="translate(0.31 0.33) rotate(-0.09 450.00 210.00)" />
  <polygon points="540.00,210.00 525.00,235.98 495.00,235.98 480.00,210.00 495.00,184.02 525.00,184.02" transform="translate(-0.40 -0.07) rotate(-0.17 510.00 210.00)" />
  <polygon points="600.00,210.00 585.00,235.98 555.00,235.98 540.00,210.00 555.00,184.02 585.00,184.02" transform="translate(0.28 -0.37) rotate(0.42 570.00 210.00)" />
  <polygon points="660.00,210.00 645.00,235.98 615.00,235.98 600.00,210.00 615.00,184.02 645.00,184.02" transform="translate(0.41 -0.37) rotate(-0.01 630.00 210.00)" />
  <polygon points="720.00,210.00 705.00,235.98 675.00,235.98 660.00,210.00 675.00,184.02 705.00,184.02" transform="translate(-0.37 0.02) rotate(-0.01 690.00 210.00)" />
  <polygon points="780.00,210.00 765.00,235.98 735.00,235.98 720.00,210.00 735.00,184.02 765.00,184.02" transform="translate(0.29 0.45) rotate(0.46 750.00 210.00)" />
  <polygon points="120.00,270.00 105.00,295.98 75.00,295.98 60.00,270.00 75.00,244.02 105.00,244.02" transform="translate(0.80 0.37) rotate(-0.56 90.00 270.00)" />
  <polygon points="180.00,270.00 165.00,295.98 135.00,295.98 120.00,270.00 135.00,244.02 165.00,244.02" transform="translate(-0.96 0.60) rotate(-1.10 150.00 270.00)" />
  <polygon points="240.00,270.00 225.00,295.98 195.00,295.98 180.00,270.00 195.00,244.02 225.00,244.02" transform="translate(-0.03 0.35) rotate(-0.24 210.00 270.00)" />
  <polygon points="300.00,270.00 285.00,295.98 255.00,295.98 240.00,270.00 255.00,244.02 285.00,244.02" transform="translate(-0.06 0.86) rotate(0.71 270.00 270.00)" />
  <polygon points="360.00,270.00 345.00,295.98 315.00,295.98 300.00,270.00 315.00,244.02 345.00,244.02" transform="translate(-0.34 -0.23) rotate(-1.05 330.00 270.00)" />
  <polygon points="420.00,270.00 405.00,295.98 375.00,295.98 360.00,270.00 375.00,244.02 405.00,244.02" transform="translate(-0.33 -0.30) rotate(-1.22 390.00 270.00)" />
  <polygon points="480.00,270.00 465.00,295.98 435.00,295.98 420.00,270.00 435.00,244.02 465.00,244.02" transform="translate(-0.32 0.00) rotate(0.95 450.00 270.00)" />
  <polygon points="540.00,270.00 525.00,295.98 495.00,295.98 480.00,270.00 495.00,244.02 525.00,244.02" transform="translate(-0.28 -0.78) rotate(-0.36 510.00 270.00)" />
  <polygon points="600.00,270.00 585.00,295.98 555.00,295.98 540.00,270.00 555.00,244.02 585.00,244.02" transform="translate(-0.46 -0.89) rotate(0.32 570.00 270.00)" />
  <polygon points="660.00,270.00 645.00,295.98 615.00,295.98 600.00,270.00 615.00,244.02 645.00,244.02" transform="translate(0.24 -0.71) rotate(1.04 630.00 270.00)" />
  <polygon points="720.00,270.00 705.00,295.98 675.00,295.98 660.00,270.00 675.00,244.02 705.00,244.02" transform="translate(-0.75 0.56) rotate(0.59 690.00 270.00)" />
  <polygon points="780.00,270.00 765.00,295.98 735.00,295.98 720.00,270.00 735.00,244.02 765.00,244.02" transform="translate(-0.66 0.62) rotate(-0.89 750.00 270.00)" />
  <polygon points="120.00,330.00 105.00,355.98 75.00,355.98 60.00,330.00 75.00,304.02 105.00,304.02" transform="translate(1.44 1.33) rotate(0.60 90.00 330.00)" />
  <polygon points="180.00,330.00 165.00,355.98 135.00,355.98 120.00,330.00 135.00,304.02 165.00,304.02" transform="translate(-1.61 0.76) rotate(1.52 150.00 330.00)" />
  <polygon points="240.00,330.00 225.00,355.98 195.00,355.98 180.00,330.00 195.00,304.02 225.00,304.02" transform="translate(-1.49 0.16) rotate(-1.36 210.00 330.00)" />
  <polygon points="300.00,330.00 285.00,355.98 255.00,355.98 240.00,330.00 255.00,304.02 285.00,304.02" transform="translate(1.23 1.06) rotate(-1.22 270.00 330.00)" />
  <polygon points="360.00,330.00 345.00,355.98 315.00,355.98 300.00,330.00 315.00,304.02 345.00,304.02" transform="translate(-1.52 1.43) rotate(0.94 330.00 330.00)" />
  <polygon points="420.00,330.00 405.00,355.98 375.00,355.98 360.00,330.00 375.00,304.02 405.00,304.02" transform="translate(-0.09 -0.40) rotate(-0.41 390.00 330.00)" />
  <polygon points="480.00,330.00 465.00,355.98 435.00,355.98 420.00,330.00 435.00,304.02 465.00,304.02" transform="translate(1.60 -1.62) rotate(1.25 450.00 330.00)" />
  <polygon points="540.00,330.00 525.00,355.98 495.00,355.98 480.00,330.00 495.00,304.02 525.00,304.02" transform="translate(1.58 -1.33) rotate(1.48 510.00 330.00)" />
  <polygon points="600.00,330.00 585.00,355.98 555.00,355.98 540.00,330.00 555.00,304.02 585.00,304.02" transform="translate(0.69 0.11) rotate(2.29 570.00 330.00)" />
  <polygon points="660.00,330.00 645.00,355.98 615.00,355.98 600.00,330.00 615.00,304.02 645.00,304.02" transform="translate(0.86 0.64) rotate(2.04 630.00 330.00)" />
  <polygon points="720.00,330.00 705.00,355.98 675.00,355.98 660.00,330.00 675.00,304.02 705.00,304.02" transform="translate(-0.24 1.16) rotate(-0.36 690.00 330.00)" />
  <polygon points="780.00,330.00 765.00,355.98 735.00,355.98 720.00,330.00 735.00,304.02 765.00,304.02" transform="translate(-1.11 0.17) rotate(-1.63 750.00 330.00)" />
  <polygon points="120.00,390.00 105.00,415.98 75.00,415.98 60.00,390.00 75.00,364.02 105.00,364.02" transform="translate(-0.10 -1.02) rotate(3.07 90.00 390.00)" />
  <polygon points="180.00,390.00 165.00,415.98 135.00,415.98 120.00,390.00 135.00,364.02 165.00,364.02" transform="translate(1.10 -2.17) rotate(1.70 150.00 390.00)" />
  <polygon points="240.00,390.00 225.00,415.98 195.00,415.98 180.00,390.00 195.00,364.02 225.00,364.02" transform="translate(-0.73 0.38) rotate(-2.90 210.00 390.00)" />
  <polygon points="300.00,390.00 285.00,415.98 255.00,415.98 240.00,390.00 255.00,364.02 285.00,364.02" transform="translate(-0.99 -0.36) rotate(-4.06 270.00 390.00)" />
  <polygon points="360.00,390.00 345.00,415.98 315.00,415.98 300.00,390.00 315.00,364.02 345.00,364.02" transform="translate(-1.33 -1.44) rotate(3.23 330.00 390.00)" />
  <polygon points="420.00,390.00 405.00,415.98 375.00,415.98 360.00,390.00 375.00,364.02 405.00,364.02" transform="translate(-0.61 2.01) rotate(1.20 390.00 390.00)" />
  <polygon points="480.00,390.00 465.00,415.98 435.00,415.98 420.00,390.00 435.00,364.02 465.00,364.02" transform="translate(-1.32 1.08) rotate(-2.74 450.00 390.00)" />
  <polygon points="540.00,390.00 525.00,415.98 495.00,415.98 480.00,390.00 495.00,364.02 525.00,364.02" transform="translate(-2.16 0.87) rotate(3.41 510.00 390.00)" />
  <polygon points="600.00,390.00 585.00,415.98 555.00,415.98 540.00,390.00 555.00,364.02 585.00,364.02" transform="translate(1.97 -1.31) rotate(3.18 570.00 390.00)" />
  <polygon points="660.00,390.00 645.00,415.98 615.00,415.98 600.00,390.00 615.00,364.02 645.00,364.02" transform="translate(-1.78 0.77) rotate(2.82 630.00 390.00)" />
  <polygon points="720.00,390.00 705.00,415.98 675.00,415.98 660.00,390.00 675.00,364.02 705.00,364.02" transform="translate(-1.37 0.77) rotate(-3.54 690.00 390.00)" />
  <polygon points="780.00,390.00 765.00,415.98 735.00,415.98 720.00,390.00 735.00,364.02 765.00,364.02" transform="translate(-2.19 0.12) rotate(-3.52 750.00 390.00)" />
  <polygon points="120.00,450.00 105.00,475.98 75.00,475.98 60.00,450.00 75.00,424.02 105.00,424.02" transform="translate(-1.04 -0.72) rotate(0.21 90.00 450.00)" />
  <polygon points="180.00,450.00 165.00,475.98 135.00,475.98 120.00,450.00 135.00,424.02 165.00,424.02" transform="translate(-0.72 -2.08) rotate(-5.92 150.00 450.00)" />
  <polygon points="240.00,450.00 225.00,475.98 195.00,475.98 180.00,450.00 195.00,424.02 225.00,424.02" transform="translate(0.86 3.70) rotate(2.15 210.00 450.00)" />
  <polygon points="300.00,450.00 285.00,475.98 255.00,475.98 240.00,450.00 255.00,424.02 285.00,424.02" transform="translate(0.25 -0.92) rotate(-0.80 270.00 450.00)" />
  <polygon points="360.00,450.00 345.00,475.98 315.00,475.98 300.00,450.00 315.00,424.02 345.00,424.02" transform="translate(3.66 1.71) rotate(4.18 330.00 450.00)" />
  <polygon points="420.00,450.00 405.00,475.98 375.00,475.98 360.00,450.00 375.00,424.02 405.00,424.02" transform="translate(1.46 -3.42) rotate(3.88 390.00 450.00)" />
  <polygon points="480.00,450.00 465.00,475.98 435.00,475.98 420.00,450.00 435.00,424.02 465.00,424.02" transform="translate(-3.30 -2.36) rotate(-0.73 450.00 450.00)" />
  <polygon points="540.00,450.00 525.00,475.98 495.00,475.98 480.00,450.00 495.00,424.02 525.00,424.02" transform="translate(0.63 -0.40) rotate(3.62 510.00 450.00)" />
  <polygon points="600.00,450.00 585.00,475.98 555.00,475.98 540.00,450.00 555.00,424.02 585.00,424.02" transform="translate(-1.12 -2.61) rotate(-4.95 570.00 450.00)" />
  <polygon points="660.00,450.00 645.00,475.98 615.00,475.98 600.00,450.00 615.00,424.02 645.00,424.02" transform="translate(0.60 -2.78) rotate(-0.71 630.00 450.00)" />
  <polygon points="720.00,450.00 705.00,475.98 675.00,475.98 660.00,450.00 675.00,424.02 705.00,424.02" transform="translate(3.27 0.03) rotate(1.31 690.00 450.00)" />
  <polygon points="780.00,450.00 765.00,475.98 735.00,475.98 720.00,450.00 735.00,424.02 765.00,424.02" transform="translate(2.07 -3.58) rotate(0.95 750.00 450.00)" />
  <polygon points="120.00,510.00 105.00,535.98 75.00,535.98 60.00,510.00 75.00,484.02 105.00,484.02" transform="translate(1.17 -4.64) rotate(-3.45 90.00 510.00)" />
  <polygon points="180.00,510.00 165.00,535.98 135.00,535.98 120.00,510.00 135.00,484.02 165.00,484.02" transform="translate(0.18 5.42) rotate(6.45 150.00 510.00)" />
  <polygon points="240.00,510.00 225.00,535.98 195.00,535.98 180.00,510.00 195.00,484.02 225.00,484.02" transform="translate(0.51 2.30) rotate(-1.86 210.00 510.00)" />
  <polygon points="300.00,510.00 285.00,535.98 255.00,535.98 240.00,510.00 255.00,484.02 285.00,484.02" transform="translate(3.12 2.53) rotate(-4.65 270.00 510.00)" />
  <polygon points="360.00,510.00 345.00,535.98 315.00,535.98 300.00,510.00 315.00,484.02 345.00,484.02" transform="translate(3.91 -4.48) rotate(5.29 330.00 510.00)" />
  <polygon points="420.00,510.00 405.00,535.98 375.00,535.98 360.00,510.00 375.00,484.02 405.00,484.02" transform="translate(-4.29 -1.17) rotate(2.00 390.00 510.00)" />
  <polygon points="480.00,510.00 465.00,535.98 435.00,535.98 420.00,510.00 435.00,484.02 465.00,484.02" transform="translate(-5.07 -5.28) rotate(3.57 450.00 510.00)" />
  <polygon points="540.00,510.00 525.00,535.98 495.00,535.98 480.00,510.00 495.00,484.02 525.00,484.02" transform="translate(-0.18 -3.93) rotate(7.72 510.00 510.00)" />
  <polygon points="600.00,510.00 585.00,535.98 555.00,535.98 540.00,510.00 555.00,484.02 585.00,484.02" transform="translate(-3.73 -4.04) rotate(-0.94 570.00 510.00)" />
  <polygon points="660.00,510.00 645.00,535.98 615.00,535.98 600.00,510.00 615.00,484.02 645.00,484.02" transform="translate(-5.20 -1.53) rotate(-1.19 630.00 510.00)" />
  <polygon points="720.00,510.00 705.00,535.98 675.00,535.98 660.00,510.00 675.00,484.02 705.00,484.02" transform="translate(3.79 -1.61) rotate(-5.68 690.00 510.00)" />
  <polygon points="780.00,510.00 765.00,535.98 735.00,535.98 720.00,510.00 735.00,484.02 765.00,484.02" transform="translate(0.98 -0.80) rotate(3.22 750.00 510.00)" />
  <polygon points="120.00,570.00 105.00,595.98 75.00,595.98 60.00,570.00 75.00,544.02 105.00,544.02" transform="translate(-5.85 -4.68) rotate(-6.33 90.00 570.00)" />
  <polygon points="180.00,570.00 165.00,595.98 135.00,595.98 120.00,570.00 135.00,544.02 165.00,544.02" transform="translate(-0.12 -2.97) rotate(3.09 150.00 570.00)" />
  <polygon points="240.00,570.00 225.00,595.98 195.00,595.98 180.00,570.00 195.00,544.02 225.00,544.02" transform="translate(2.01 2.84) rotate(0.43 210.00 570.00)" />
  <polygon points="300.00,570.00 285.00,595.98 255.00,595.98 240.00,570.00 255.00,544.02 285.00,544.02" transform="translate(-0.79 -3.82) rotate(1.18 270.00 570.00)" />
  <polygon points="360.00,570.00 345.00,595.98 315.00,595.98 300.00,570.00 315.00,544.02 345.00,544.02" transform="translate(-4.21 4.77) rotate(2.21 330.00 570.00)" />
  <polygon points="420.00,570.00 405.00,595.98 375.00,595.98 360.00,570.00 375.00,544.02 405.00,544.02" transform="translate(-5.68 -3.84) rotate(8.31 390.00 570.00)" />
  <polygon points="480.00,570.00 465.00,595.98 435.00,595.98 420.00,570.00 435.00,544.02 465.00,544.02" transform="translate(1.74 2.39) rotate(6.59 450.00 570.00)" />
  <polygon points="540.00,570.00 525.00,595.98 495.00,595.98 480.00,570.00 495.00,544.02 525.00,544.02" transform="translate(-7.01 2.02) rotate(-0.58 510.00 570.00)" />
  <polygon points="600.00,570.00 585.00,595.98 555.00,595.98 540.00,570.00 555.00,544.02 585.00,544.02" transform="translate(-2.19 -3.75) rotate(5.81 570.00 570.00)" />
  <polygon points="660.00,570.00 645.00,595.98 615.00,595.98 600.00,570.00 615.00,544.02 645.00,544.02" transform="translate(1.66 4.82) rotate(-4.05 630.00 570.00)" />
  <polygon points="720.00,570.00 705.00,595.98 675.00,595.98 660.00,570.00 675.00,544.02 705.00,544.02" transform="translate(1.02 4.96) rotate(-4.00 690.00 570.00)" />
  <polygon points="780.00,570.00 765.00,595.98 735.00,595.98 720.00,570.00 735.00,544.02 765.00,544.02" transform="translate(-5.96 -5.15) rotate(-9.50 750.00 570.00)" />
  <polygon points="120.00,630.00 105.00,655.98 75.00,655.98 60.00,630.00 75.00,604.02 105.00,604.02" transform="translate(-0.20 -2.21) rotate(-4.58 90.00 630.00)" />
  <polygon points="180.00,630.00 165.00,655.98 135.00,655.98 120.00,630.00 135.00,604.02 165.00,604.02" transform="translate(-2.27 4.62) rotate(-9.30 150.00 630.00)" />
  <polygon points="240.00,630.00 225.00,655.98 195.00,655.98 180.00,630.00 195.00,604.02 225.00,604.02" transform="translate(7.21 -5.85) rotate(4.43 210.00 630.00)" />
  <polygon points="300.00,630.00 285.00,655.98 255.00,655.98 240.00,630.00 255.00,604.02 285.00,604.02" transform="translate(0.39 8.63) rotate(-7.20 270.00 630.00)" />
  <polygon points="360.00,630.00 345.00,655.98 315.00,655.98 300.00,630.00 315.00,604.02 345.00,604.02" transform="translate(-2.65 -7.16) rotate(-1.66 330.00 630.00)" />
  <polygon points="420.00,630.00 405.00,655.98 375.00,655.98 360.00,630.00 375.00,604.02 405.00,604.02" transform="translate(6.83 -8.71) rotate(-1.15 390.00 630.00)" />
  <polygon points="480.00,630.00 465.00,655.98 435.00,655.98 420.00,630.00 435.00,604.02 465.00,604.02" transform="translate(-3.53 3.13) rotate(-7.71 450.00 630.00)" />
  <polygon points="540.00,630.00 525.00,655.98 495.00,655.98 480.00,630.00 495.00,604.02 525.00,604.02" transform="translate(0.23 5.00) rotate(-1.28 510.00 630.00)" />
  <polygon points="600.00,630.00 585.00,655.98 555.00,655.98 540.00,630.00 555.00,604.02 585.00,604.02" transform="translate(0.01 7.47) rotate(5.16 570.00 630.00)" />
  <polygon points="660.00,630.00 645.00,655.98 615.00,655.98 600.00,630.00 615.00,604.02 645.00,604.02" transform="translate(-6.20 -4.63) rotate(-12.78 630.00 630.00)" />
  <polygon points="720.00,630.00 705.00,655.98 675.00,655.98 660.00,630.00 675.00,604.02 705.00,604.02" transform="translate(5.20 -8.80) rotate(-12.74 690.00 630.00)" />
  <polygon points="780.00,630.00 765.00,655.98 735.00,655.98 720.00,630.00 735.00,604.02 765.00,604.02" transform="translate(-5.31 5.95) rotate(-13.20 750.00 630.00)" />
  <polygon points="120.00,690.00 105.00,715.98 75.00,715.98 60.00,690.00 75.00,664.02 105.00,664.02" transform="translate(3.65 -1.88) rotate(-13.79 90.00 690.00)" />
  <polygon points="180.00,690.00 165.00,715.98 135.00,715.98 120.00,690.00 135.00,664.02 165.00,664.02" transform="translate(0.78 -0.37) rotate(6.33 150.00 690.00)" />
  <polygon points="240.00,690.00 225.00,715.98 195.00,715.98 180.00,690.00 195.00,664.02 225.00,664.02" transform="translate(-4.01 -10.47) rotate(-6.37 210.00 690.00)" />
  <polygon points="300.00,690.00 285.00,715.98 255.00,715.98 240.00,690.00 255.00,664.02 285.00,664.02" transform="translate(-2.73 -1.49) rotate(-15.06 270.00 690.00)" />
  <polygon points="360.00,690.00 345.00,715.98 315.00,715.98 300.00,690.00 315.00,664.02 345.00,664.02" transform="translate(-0.98 8.31) rotate(-0.80 330.00 690.00)" />
  <polygon points="420.00,690.00 405.00,715.98 375.00,715.98 360.00,690.00 375.00,664.02 405.00,664.02" transform="translate(4.05 9.33) rotate(0.90 390.00 690.00)" />
  <polygon points="480.00,690.00 465.00,715.98 435.00,715.98 420.00,690.00 435.00,664.02 465.00,664.02" transform="translate(10.34 5.60) rotate(-12.94 450.00 690.00)" />
  <polygon points="540.00,690.00 525.00,715.98 495.00,715.98 480.00,690.00 495.00,664.02 525.00,664.02" transform="translate(2.68 0.68) rotate(-4.45 510.00 690.00)" />
  <polygon points="600.00,690.00 585.00,715.98 555.00,715.98 540.00,690.00 555.00,664.02 585.00,664.02" transform="translate(6.50 -9.91) rotate(10.31 570.00 690.00)" />
  <polygon points="660.00,690.00 645.00,715.98 615.00,715.98 600.00,690.00 615.00,664.02 645.00,664.02" transform="translate(-2.10 11.14) rotate(16.35 630.00 690.00)" />
  <polygon points="720.00,690.00 705.00,715.98 675.00,715.98 660.00,690.00 675.00,664.02 705.00,664.02" transform="translate(-4.34 -6.00) rotate(-8.56 690.00 690.00)" />
  <polygon points="780.00,690.00 765.00,715.98 735.00,715.98 720.00,690.00 735.00,664.02 765.00,664.02" transform="translate(-0.73 -8.60) rotate(-13.19 750.00 690.00)" />
  <polygon points="120.00,750.00 105.00,775.98 75.00,775.98 60.00,750.00 75.00,724.02 105.00,724.02" transform="translate(-6.08 1.01) rotate(-4.80 90.00 750.00)" />
  <polygon points="180.00,750.00 165.00,775.98 135.00,775.98 120.00,750.00 135.00,724.02 165.00,724.02" transform="translate(-1.38 0.84) rotate(-12.63 150.00 750.00)" />
  <polygon points="240.00,750.00 225.00,775.98 195.00,775.98 180.00,750.00 195.00,724.02 225.00,724.02" transform="translate(-10.09 2.00) rotate(5.61 210.00 750.00)" />
  <polygon points="300.00,750.00 285.00,775.98 255.00,775.98 240.00,750.00 255.00,724.02 285.00,724.02" transform="translate(-2.69 -0.61) rotate(7.18 270.00 750.00)" />
  <polygon points="360.00,750.00 345.00,775.98 315.00,775.98 300.00,750.00 315.00,724.02 345.00,724.02" transform="translate(8.51 -9.45) rotate(3.81 330.00 750.00)" />
  <polygon points="420.00,750.00 405.00,775.98 375.00,775.98 360.00,750.00 375.00,724.02 405.00,724.02" transform="translate(-3.06 2.25) rotate(7.73 390.00 750.00)" />
  <polygon points="480.00,750.00 465.00,775.98 435.00,775.98 420.00,750.00 435.00,724.02 465.00,724.02" transform="translate(12.09 10.85) rotate(-17.28 450.00 750.00)" />
  <polygon points="540.00,750.00 525.00,775.98 495.00,775.98 480.00,750.00 495.00,724.02 525.00,724.02" transform="translate(13.28 -3.30) rotate(8.83 510.00 750.00)" />
  <polygon points="600.00,750.00 585.00,775.98 555.00,775.98 540.00,750.00 555.00,724.02 585.00,724.02" transform="translate(3.35 -10.60) rotate(-7.86 570.00 750.00)" />
  <polygon points="660.00,750.00 645.00,775.98 615.00,775.98 600.00,750.00 615.00,724.02 645.00,724.02" transform="translate(0.86 0.08) rotate(-17.53 630.00 750.00)" />
  <polygon points="720.00,750.00 705.00,775.98 675.00,775.98 660.00,750.00 675.00,724.02 705.00,724.02" transform="translate(10.11 -0.47) rotate(-4.88 690.00 750.00)" />
  <polygon points="780.00,750.00 765.00,775.98 735.00,775.98 720.00,750.00 735.00,724.02 765.00,724.02" transform="translate(-12.47 -10.64) rotate(-11.70 750.00 750.00)" />
  <polygon points="120.00,810.00 105.00,835.98 75.00,835.98 60.00,810.00 75.00,784.02 105.00,784.02" transform="translate(14.73 11.94) rotate(16.34 90.00 810.00)" />
  <polygon points="180.00,810.00 165.00,835.98 135.00,835.98 120.00,810.00 135.00,784.02 165.00,784.02" transform="translate(2.11 5.96) rotate(-11.88 150.00 810.00)" />
  <polygon points="240.00,810.00 225.00,835.98 195.00,835.98 180.00,810.00 195.00,784.02 225.00,784.02" transform="translate(11.35 3.96) rotate(-17.86 210.00 810.00)" />
  <polygon points="300.00,810.00 285.00,835.98 255.00,835.98 240.00,810.00 255.00,784.02 285.00,784.02" transform="translate(9.38 11.63) rotate(-17.37 270.00 810.00)" />
  <polygon points="360.00,810.00 345.00,835.98 315.00,835.98 300.00,810.00 315.00,784.02 345.00,784.02" transform="translate(13.70 -1.05) rotate(-22.00 330.00 810.00)" />
  <polygon points="420.00,810.00 405.00,835.98 375.00,835.98 360.00,810.00 375.00,784.02 405.00,784.02" transform="translate(-5.24 9.36) rotate(0.95 390.00 810.00)" />
  <polygon points="480.00,810.00 465.00,835.98 435.00,835.98 420.00,810.00 435.00,784.02 465.00,784.02" transform="translate(-12.78 11.84) rotate(-3.59 450.00 810.00)" />
  <polygon points="540.00,810.00 525.00,835.98 495.00,835.98 480.00,810.00 495.00,784.02 525.00,784.02" transform="translate(-15.02 -6.74) rotate(5.38 510.00 810.00)" />
  <polygon points="600.00,810.00 585.00,835.98 555.00,835.98 540.00,810.00 555.00,784.02 585.00,784.02" transform="translate(-15.89 -11.98) rotate(-10.75 570.00 810.00)" />
  <polygon points="660.00,810.00 645.00,835.98 615.00,835.98 600.00,810.00 615.00,784.02 645.00,784.02" transform="translate(-2.33 4.76) rotate(-8.87 630.00 810.00)" />
  <polygon points="720.00,810.00 705.00,835.98 675.00,835.98 660.00,810.00 675.00,784.02 705.00,784.02" transform="translate(0.85 -4.52) rotate(22.29 690.00 810.00)" />
  <polygon points="780.00,810.00 765.00,835.98 735.00,835.98 720.00,810.00 735.00,784.02 765.00,784.02" transform="translate(-9.03 -14.78) rotate(-7.32 750.00 810.00)" />
  <polygon points="120.00,870.00 105.00,895.98 75.00,895.98 60.00,870.00 75.00,844.02 105.00,844.02" transform="translate(7.71 -4.89) rotate(26.43 90.00 870.00)" />
  <polygon points="180.00,870.00 165.00,895.98 135.00,895.98 120.00,870.00 135.00,844.02 165.00,844.02" transform="translate(17.42 2.36) rotate(-10.01 150.00 870.00)" />
  <polygon points="240.00,870.00 225.00,895.98 195.00,895.98 180.00,870.00 195.00,844.02 225.00,844.02" transform="translate(-10.43 -10.58) rotate(-10.98 210.00 870.00)" />
  <polygon points="300.00,870.00 285.00,895.98 255.00,895.98 240.00,870.00 255.00,844.02 285.00,844.02" transform="translate(11.55 6.86) rotate(16.56 270.00 870.00)" />
  <polygon points="360.00,870.00 345.00,895.98 315.00,895.98 300.00,870.00 315.00,844.02 345.00,844.02" transform="translate(-17.10 5.99) rotate(2.21 330.00 870.00)" />
  <polygon points="420.00,870.00 405.00,895.98 375.00,895.98 360.00,870.00 375.00,844.02 405.00,844.02" transform="translate(2.17 -15.90) rotate(-18.41 390.00 870.00)" />
  <polygon points="480.00,870.00 465.00,895.98 435.00,895.98 420.00,870.00 435.00,844.02 465.00,844.02" transform="translate(11.80 -7.34) rotate(-13.22 450.00 870.00)" />
  <polygon points="540.00,870.00 525.00,895.98 495.00,895.98 480.00,870.00 495.00,844.02 525.00,844.02" transform="translate(-6.96 13.16) rotate(-23.80 510.00 870.00)" />
  <polygon points="600.00,870.00 585.00,895.98 555.00,895.98 540.00,870.00 555.00,844.02 585.00,844.02" transform="translate(-16.99 5.80) rotate(-2.47 570.00 870.00)" />
  <polygon points="660.00,870.00 645.00,895.98 615.00,895.98 600.00,870.00 615.00,844.02 645.00,844.02" transform="translate(-0.51 13.86) rotate(21.39 630.00 870.00)" />
  <polygon points="720.00,870.00 705.00,895.98 675.00,895.98 660.00,870.00 675.00,844.02 705.00,844.02" transform="translate(-5.78 -11.21) rotate(3.20 690.00 870.00)" />
  <polygon points="780.00,870.00 765.00,895.98 735.00,895.98 720.00,870.00 735.00,844.02 765.00,844.02" transform="translate(17.72 7.39) rotate(-1.09 750.00 870.00)" />
  <polygon points="120.00,930.00 105.00,955.98 75.00,955.98 60.00,930.00 75.00,904.02 105.00,904.02" transform="translate(-3.26 -16.56) rotate(-25.54 90.00 930.00)" />
  <polygon points="180.00,930.00 165.00,955.98 135.00,955.98 120.00,930.00 135.00,904.02 165.00,904.02" transform="translate(15.35 16.35) rotate(-24.98 150.00 930.00)" />
  <polygon points="240.00,930.00 225.00,955.98 195.00,955.98 180.00,930.00 195.00,904.02 225.00,904.02" transform="translate(-9.97 2.86) rotate(-29.07 210.00 930.00)" />
  <polygon points="300.00,930.00 285.00,955.98 255.00,955.98 240.00,930.00 255.00,904.02 285.00,904.02" transform="translate(16.34 9.61) rotate(-26.07 270.00 930.00)" />
  <polygon points="360.00,930.00 345.00,955.98 315.00,955.98 300.00,930.00 315.00,904.02 345.00,904.02" transform="translate(-8.62 6.89) rotate(19.62 330.00 930.00)" />
  <polygon points="420.00,930.00 405.00,955.98 375.00,955.98 360.00,930.00 375.00,904.02 405.00,904.02" transform="translate(8.41 17.17) rotate(25.91 390.00 930.00)" />
  <polygon points="480.00,930.00 465.00,955.98 435.00,955.98 420.00,930.00 435.00,904.02 465.00,904.02" transform="translate(10.55 2.96) rotate(-30.50 450.00 930.00)" />
  <polygon points="540.00,930.00 525.00,955.98 495.00,955.98 480.00,930.00 495.00,904.02 525.00,904.02" transform="translate(8.05 16.16) rotate(-8.27 510.00 930.00)" />
  <polygon points="600.00,930.00 585.00,955.98 555.00,955.98 540.00,930.00 555.00,904.02 585.00,904.02" transform="translate(13.40 6.02) rotate(-24.49 570.00 930.00)" />
  <polygon points="660.00,930.00 645.00,955.98 615.00,955.98 600.00,930.00 615.00,904.02 645.00,904.02" transform="translate(19.27 -18.28) rotate(10.75 630.00 930.00)" />
  <polygon points="720.00,930.00 705.00,955.98 675.00,955.98 660.00,930.00 675.00,904.02 705.00,904.02" transform="translate(16.52 -19.30) rotate(-8.12 690.00 930.00)" />
  <polygon points="780.00,930.00 765.00,955.98 735.00,955.98 720.00,930.00 735.00,904.02 765.00,904.02" transform="translate(8.35 -12.23) rotate(25.17 750.00 930.00)" />
  <polygon points="120.00,990.00 105.00,1015.98 75.00,1015.98 60.00,990.00 75.00,964.02 105.00,964.02" transform="translate(-23.51 -2.66) rotate(-4.71 90.00 990.00)" />
  <polygon points="180.00,990.00 165.00,1015.98 135.00,1015.98 120.00,990.00 135.00,964.02 165.00,964.02" transform="translate(6.52 22.81) rotate(-27.99 150.00 990.00)" />
  <polygon points="240.00,990.00 225.00,1015.98 195.00,1015.98 180.00,990.00 195.00,964.02 225.00,964.02" transform="translate(-13.14 -12.29) rotate(16.51 210.00 990.00)" />
  <polygon points="300.00,990.00 285.00,1015.98 255.00,1015.98 240.00,990.00 255.00,964.02 285.00,964.02" transform="translate(-21.91 -14.72) rotate(22.56 270.00 990.00)" />
  <polygon points="360.00,990.00 345.00,1015.98 315.00,1015.98 300.00,990.00 315.00,964.02 345.00,964.02" transform="translate(11.56 -7.28) rotate(25.06 330.00 990.00)" />
  <polygon points="420.00,990.00 405.00,1015.98 375.00,1015.98 360.00,990.00 375.00,964.02 405.00,964.02" transform="translate(-17.47 -22.04) rotate(-30.89 390.00 990.00)" />
  <polygon points="480.00,990.00 465.00,1015.98 435.00,1015.98 420.00,990.00 435.00,964.02 465.00,964.02" transform="translate(-7.92 5.34) rotate(30.20 450.00 990.00)" />
  <polygon points="540.00,990.00 525.00,1015.98 495.00,1015.98 480.00,990.00 495.00,964.02 525.00,964.02" transform="translate(1.95 10.65) rotate(-13.57 510.00 990.00)" />
  <polygon points="600.00,990.00 585.00,1015.98 555.00,1015.98 540.00,990.00 555.00,964.02 585.00,964.02" transform="translate(-21.45 22.32) rotate(-36.41 570.00 990.00)" />
  <polygon points="660.00,990.00 645.00,1015.98 615.00,1015.98 600.00,990.00 615.00,964.02 645.00,964.02" transform="translate(20.73 -9.52) rotate(-9.01 630.00 990.00)" />
  <polygon points="720.00,990.00 705.00,1015.98 675.00,1015.98 660.00,990.00 675.00,964.02 705.00,964.02" transform="translate(-16.57 -2.54) rotate(-33.23 690.00 990.00)" />
  <polygon points="780.00,990.00 765.00,1015.98 735.00,1015.98 720.00,990.00 735.00,964.02 765.00,964.02" transform="translate(-6.19 18.15) rotate(14.75 750.00 990.00)" />
  <polygon points="120.00,1050.00 105.00,1075.98 75.00,1075.98 60.00,1050.00 75.00,1024.02 105.00,1024.02" transform="translate(23.28 13.54) rotate(-2.13 90.00 1050.00)" />
  <polygon points="180.00,1050.00 165.00,1075.98 135.00,1075.98 120.00,1050.00 135.00,1024.02 165.00,1024.02" transform="translate(-11.77 -21.16) rotate(-37.87 150.00 1050.00)" />
  <polygon points="240.00,1050.00 225.00,1075.98 195.00,1075.98 180.00,1050.00 195.00,1024.02 225.00,1024.02" transform="translate(-20.67 23.45) rotate(38.94 210.00 1050.00)" />
  <polygon points="300.00,1050.00 285.00,1075.98 255.00,1075.98 240.00,1050.00 255.00,1024.02 285.00,1024.02" transform="translate(-22.53 -12.43) rotate(17.99 270.00 1050.00)" />
  <polygon points="360.00,1050.00 345.00,1075.98 315.00,1075.98 300.00,1050.00 315.00,1024.02 345.00,1024.02" transform="translate(-18.48 21.27) rotate(33.15 330.00 1050.00)" />
  <polygon points="420.00,1050.00 405.00,1075.98 375.00,1075.98 360.00,1050.00 375.00,1024.02 405.00,1024.02" transform="translate(-18.95 15.34) rotate(6.99 390.00 1050.00)" />
  <polygon points="480.00,1050.00 465.00,1075.98 435.00,1075.98 420.00,1050.00 435.00,1024.02 465.00,1024.02" transform="translate(25.66 4.50) rotate(26.19 450.00 1050.00)" />
  <polygon points="540.00,1050.00 525.00,1075.98 495.00,1075.98 480.00,1050.00 495.00,1024.02 525.00,1024.02" transform="translate(-2.55 22.13) rotate(-0.94 510.00 1050.00)" />
  <polygon points="600.00,1050.00 585.00,1075.98 555.00,1075.98 540.00,1050.00 555.00,1024.02 585.00,1024.02" transform="translate(24.26 -9.12) rotate(-13.48 570.00 1050.00)" />
  <polygon points="660.00,1050.00 645.00,1075.98 615.00,1075.98 600.00,1050.00 615.00,1024.02 645.00,1024.02" transform="translate(7.21 -15.36) rotate(34.78 630.00 1050.00)" />
  <polygon points="720.00,1050.00 705.00,1075.98 675.00,1075.98 660.00,1050.00 675.00,1024.02 705.00,1024.02" transform="translate(-26.01 -1.38) rotate(31.91 690.00 1050.00)" />
  <polygon points="780.00,1050.00 765.00,1075.98 735.00,1075.98 720.00,1050.00 735.00,1024.02 765.00,1024.02" transform="translate(22.62 17.45) rotate(38.59 750.00 1050.00)" />
  <polygon points="120.00,1110.00 105.00,1135.98 75.00,1135.98 60.00,1110.00 75.00,1084.02 105.00,1084.02" transform="translate(18.27 -32.24) rotate(-16.49 90.00 1110.00)" />
  <polygon points="180.00,1110.00 165.00,1135.98 135.00,1135.98 120.00,1110.00 135.00,1084.02 165.00,1084.02" transform="translate(22.89 -6.09) rotate(21.58 150.00 1110.00)" />
  <polygon points="240.00,1110.00 225.00,1135.98 195.00,1135.98 180.00,1110.00 195.00,1084.02 225.00,1084.02" transform="translate(-15.03 -2.91) rotate(-33.33 210.00 1110.00)" />
  <polygon points="300.00,1110.00 285.00,1135.98 255.00,1135.98 240.00,1110.00 255.00,1084.02 285.00,1084.02" transform="translate(-3.26 3.75) rotate(38.21 270.00 1110.00)" />
  <polygon points="360.00,1110.00 345.00,1135.98 315.00,1135.98 300.00,1110.00 315.00,1084.02 345.00,1084.02" transform="translate(27.38 14.89) rotate(-13.37 330.00 1110.00)" />
  <polygon points="420.00,1110.00 405.00,1135.98 375.00,1135.98 360.00,1110.00 375.00,1084.02 405.00,1084.02" transform="translate(19.87 -3.77) rotate(0.33 390.00 1110.00)" />
  <polygon points="480.00,1110.00 465.00,1135.98 435.00,1135.98 420.00,1110.00 435.00,1084.02 465.00,1084.02" transform="translate(-2.82 14.94) rotate(-32.44 450.00 1110.00)" />
  <polygon points="540.00,1110.00 525.00,1135.98 495.00,1135.98 480.00,1110.00 495.00,1084.02 525.00,1084.02" transform="translate(-24.83 -26.96) rotate(34.57 510.00 1110.00)" />
  <polygon points="600.00,1110.00 585.00,1135.98 555.00,1135.98 540.00,1110.00 555.00,1084.02 585.00,1084.02" transform="translate(-11.65 14.74) rotate(-32.98 570.00 1110.00)" />
  <polygon points="660.00,1110.00 645.00,1135.98 615.00,1135.98 600.00,1110.00 615.00,1084.02 645.00,1084.02" transform="translate(-19.62 -20.57) rotate(-9.47 630.00 1110.00)" />
  <polygon points="720.00,1110.00 705.00,1135.98 675.00,1135.98 660.00,1110.00 675.00,1084.02 705.00,1084.02" transform="translate(-18.56 -19.30) rotate(13.25 690.00 1110.00)" />
  <polygon points="780.00,1110.00 765.00,1135.98 735.00,1135.98 720.00,1110.00 735.00,1084.02 765.00,1084.02" transform="translate(-22.38 -1.86) rotate(-35.92 750.00 1110.00)" />
  <polygon points="120.00,1170.00 105.00,1195.98 75.00,1195.98 60.00,1170.00 75.00,1144.02 105.00,1144.02" transform="translate(22.21 -21.63) rotate(-33.97 90.00 1170.00)" />
  <polygon points="180.00,1170.00 165.00,1195.98 135.00,1195.98 120.00,1170.00 135.00,1144.02 165.00,1144.02" transform="translate(-23.67 -29.36) rotate(-45.14 150.00 1170.00)" />
  <polygon points="240.00,1170.00 225.00,1195.98 195.00,1195.98 180.00,1170.00 195.00,1144.02 225.00,1144.02" transform="translate(31.42 -19.59) rotate(33.54 210.00 1170.00)" />
  <polygon points="300.00,1170.00 285.00,1195.98 255.00,1195.98 240.00,1170.00 255.00,1144.02 285.00,1144.02" transform="translate(4.26 3.09) rotate(34.06 270.00 1170.00)" />
  <polygon points="360.00,1170.00 345.00,1195.98 315.00,1195.98 300.00,1170.00 315.00,1144.02 345.00,1144.02" transform="translate(13.67 4.86) rotate(27.29 330.00 1170.00)" />
  <polygon points="420.00,1170.00 405.00,1195.98 375.00,1195.98 360.00,1170.00 375.00,1144.02 405.00,1144.02" transform="translate(-2.74 -11.93) rotate(-6.85 390.00 1170.00)" />
  <polygon points="480.00,1170.00 465.00,1195.98 435.00,1195.98 420.00,1170.00 435.00,1144.02 465.00,1144.02" transform="translate(13.49 -34.18) rotate(7.90 450.00 1170.00)" />
  <polygon points="540.00,1170.00 525.00,1195.98 495.00,1195.98 480.00,1170.00 495.00,1144.02 525.00,1144.02" transform="translate(-22.20 -1.04) rotate(-41.16 510.00 1170.00)" />
  <polygon points="600.00,1170.00 585.00,1195.98 555.00,1195.98 540.00,1170.00 555.00,1144.02 585.00,1144.02" transform="translate(-25.68 28.09) rotate(17.72 570.00 1170.00)" />
  <polygon points="660.00,1170.00 645.00,1195.98 615.00,1195.98 600.00,1170.00 615.00,1144.02 645.00,1144.02" transform="translate(-9.31 -12.30) rotate(49.81 630.00 1170.00)" />
  <polygon points="720.00,1170.00 705.00,1195.98 675.00,1195.98 660.00,1170.00 675.00,1144.02 705.00,1144.02" transform="translate(-32.75 -5.92) rotate(-13.02 690.00 1170.00)" />
  <polygon points="780.00,1170.00 765.00,1195.98 735.00,1195.98 720.00,1170.00 735.00,1144.02 765.00,1144.02" transform="translate(17.14 -27.63) rotate(-45.11 750.00 1170.00)" />
  <polygon points="120.00,1230.00 105.00,1255.98 75.00,1255.98 60.00,1230.00 75.00,1204.02 105.00,1204.02" transform="translate(32.04 -5.30) rotate(-1.56 90.00 1230.00)" />
  <polygon points="180.00,1230.00 165.00,1255.98 135.00,1255.98 120.00,1230.00 135.00,1204.02 165.00,1204.02" transform="translate(5.88 6.41) rotate(6.85 150.00 1230.00)" />
  <polygon points="240.00,1230.00 225.00,1255.98 195.00,1255.98 180.00,1230.00 195.00,1204.02 225.00,1204.02" transform="translate(10.69 -15.83) rotate(-28.31 210.00 1230.00)" />
  <polygon points="300.00,1230.00 285.00,1255.98 255.00,1255.98 240.00,1230.00 255.00,1204.02 285.00,1204.02" transform="translate(-4.73 -38.76) rotate(14.45 270.00 1230.00)" />
  <polygon points="360.00,1230.00 345.00,1255.98 315.00,1255.98 300.00,1230.00 315.00,1204.02 345.00,1204.02" transform="translate(-38.98 19.37) rotate(-48.67 330.00 1230.00)" />
  <polygon points="420.00,1230.00 405.00,1255.98 375.00,1255.98 360.00,1230.00 375.00,1204.02 405.00,1204.02" transform="translate(-32.25 -1.36) rotate(-41.14 390.00 1230.00)" />
  <polygon points="480.00,1230.00 465.00,1255.98 435.00,1255.98 420.00,1230.00 435.00,1204.02 465.00,1204.02" transform="translate(-11.45 11.01) rotate(27.37 450.00 1230.00)" />
  <polygon points="540.00,1230.00 525.00,1255.98 495.00,1255.98 480.00,1230.00 495.00,1204.02 525.00,1204.02" transform="translate(27.33 -23.81) rotate(-2.05 510.00 1230.00)" />
  <polygon points="600.00,1230.00 585.00,1255.98 555.00,1255.98 540.00,1230.00 555.00,1204.02 585.00,1204.02" transform="translate(31.16 -10.00) rotate(30.44 570.00 1230.00)" />
  <polygon points="660.00,1230.00 645.00,1255.98 615.00,1255.98 600.00,1230.00 615.00,1204.02 645.00,1204.02" transform="translate(32.28 -21.54) rotate(-25.86 630.00 1230.00)" />
  <polygon points="720.00,1230.00 705.00,1255.98 675.00,1255.98 660.00,1230.00 675.00,1204.02 705.00,1204.02" transform="translate(-11.80 -27.30) rotate(20.01 690.00 1230.00)" />
  <polygon points="780.00,1230.00 765.00,1255.98 735.00,1255.98 720.00,1230.00 735.00,1204.02 765.00,1204.02" transform="translate(-19.29 -31.88) rotate(20.40 750.00 1230.00)" />
  <polygon points="120.00,1290.00 105.00,1315.98 75.00,1315.98 60.00,1290.00 75.00,1264.02 105.00,1264.02" transform="translate(28.31 11.24) rotate(-51.51 90.00 1290.00)" />
  <polygon points="180.00,1290.00 165.00,1315.98 135.00,1315.98 120.00,1290.00 135.00,1264.02 165.00,1264.02" transform="translate(27.49 -16.00) rotate(-49.55 150.00 1290.00)" />
  <polygon points="240.00,1290.00 225.00,1315.98 195.00,1315.98 180.00,1290.00 195.00,1264.02 225.00,1264.02" transform="translate(-18.35 32.45) rotate(21.46 210.00 1290.00)" />
  <polygon points="300.00,1290.00 285.00,1315.98 255.00,1315.98 240.00,1290.00 255.00,1264.02 285.00,1264.02" transform="translate(-26.42 -18.54) rotate(-8.44 270.00 1290.00)" />
  <polygon points="360.00,1290.00 345.00,1315.98 315.00,1315.98 300.00,1290.00 315.00,1264.02 345.00,1264.02" transform="translate(2.57 22.63) rotate(46.78 330.00 1290.00)" />
  <polygon points="420.00,1290.00 405.00,1315.98 375.00,1315.98 360.00,1290.00 375.00,1264.02 405.00,1264.02" transform="translate(16.62 31.42) rotate(43.29 390.00 1290.00)" />
  <polygon points="480.00,1290.00 465.00,1315.98 435.00,1315.98 420.00,1290.00 435.00,1264.02 465.00,1264.02" transform="translate(10.18 -43.45) rotate(39.25 450.00 1290.00)" />
  <polygon points="540.00,1290.00 525.00,1315.98 495.00,1315.98 480.00,1290.00 495.00,1264.02 525.00,1264.02" transform="translate(20.19 -33.61) rotate(-40.65 510.00 1290.00)" />
  <polygon points="600.00,1290.00 585.00,1315.98 555.00,1315.98 540.00,1290.00 555.00,1264.02 585.00,1264.02" transform="translate(20.63 -34.08) rotate(30.23 570.00 1290.00)" />
  <polygon points="660.00,1290.00 645.00,1315.98 615.00,1315.98 600.00,1290.00 615.00,1264.02 645.00,1264.02" transform="translate(12.02 -6.71) rotate(55.26 630.00 1290.00)" />
  <polygon points="720.00,1290.00 705.00,1315.98 675.00,1315.98 660.00,1290.00 675.00,1264.02 705.00,1264.02" transform="translate(42.42 -37.53) rotate(4.99 690.00 1290.00)" />
  <polygon points="780.00,1290.00 765.00,1315.98 735.00,1315.98 720.00,1290.00 735.00,1264.02 765.00,1264.02" transform="translate(-31.58 24.89) rotate(31.29 750.00 1290.00)" />
  <polygon points="120.00,1350.00 105.00,1375.98 75.00,1375.98 60.00,1350.00 75.00,1324.02 105.00,1324.02" transform="translate(-34.32 -1.49) rotate(50.17 90.00 1350.00)" />
  <polygon points="180.00,1350.00 165.00,1375.98 135.00,1375.98 120.00,1350.00 135.00,1324.02 165.00,1324.02" transform="translate(-32.52 -30.37) rotate(63.40 150.00 1350.00)" />
  <polygon points="240.00,1350.00 225.00,1375.98 195.00,1375.98 180.00,1350.00 195.00,1324.02 225.00,1324.02" transform="translate(-0.37 -19.04) rotate(-57.23 210.00 1350.00)" />
  <polygon points="300.00,1350.00 285.00,1375.98 255.00,1375.98 240.00,1350.00 255.00,1324.02 285.00,1324.02" transform="translate(-6.02 8.52) rotate(63.96 270.00 1350.00)" />
  <polygon points="360.00,1350.00 345.00,1375.98 315.00,1375.98 300.00,1350.00 315.00,1324.02 345.00,1324.02" transform="translate(4.83 -1.24) rotate(17.01 330.00 1350.00)" />
  <polygon points="420.00,1350.00 405.00,1375.98 375.00,1375.98 360.00,1350.00 375.00,1324.02 405.00,1324.02" transform="translate(-43.99 -49.12) rotate(-55.78 390.00 1350.00)" />
  <polygon points="480.00,1350.00 465.00,1375.98 435.00,1375.98 420.00,1350.00 435.00,1324.02 465.00,1324.02" transform="translate(40.94 25.06) rotate(-16.34 450.00 1350.00)" />
  <polygon points="540.00,1350.00 525.00,1375.98 495.00,1375.98 480.00,1350.00 495.00,1324.02 525.00,1324.02" transform="translate(-20.94 35.06) rotate(14.40 510.00 1350.00)" />
  <polygon points="600.00,1350.00 585.00,1375.98 555.00,1375.98 540.00,1350.00 555.00,1324.02 585.00,1324.02" transform="translate(30.46 16.69) rotate(5.33 570.00 1350.00)" />
  <polygon points="660.00,1350.00 645.00,1375.98 615.00,1375.98 600.00,1350.00 615.00,1324.02 645.00,1324.02" transform="translate(43.37 -44.71) rotate(-32.22 630.00 1350.00)" />
  <polygon points="720.00,1350.00 705.00,1375.98 675.00,1375.98 660.00,1350.00 675.00,1324.02 705.00,1324.02" transform="translate(-0.79 -38.47) rotate(55.87 690.00 1350.00)" />
  <polygon points="780.00,1350.00 765.00,1375.98 735.00,1375.98 720.00,1350.00 735.00,1324.02 765.00,1324.02" transform="translate(35.43 20.77) rotate(3.46 750.00 1350.00)" />
  </g>
</svg>